<?xml version="1.0" encoding="utf-8"?>
<!-- Generator: Adobe Illustrator 16.0.0, SVG Export Plug-In . SVG Version: 6.00 Build 0)  -->
<!DOCTYPE svg PUBLIC "-//W3C//DTD SVG 1.1//EN" "http://www.w3.org/Graphics/SVG/1.1/DTD/svg11.dtd">
<svg version="1.1" id="Layer_1" xmlns="http://www.w3.org/2000/svg" xmlns:xlink="http://www.w3.org/1999/xlink" x="0px" y="0px"
	 width="120px" height="48px" viewBox="0 0 120 48" enable-background="new 0 0 120 48" xml:space="preserve">
<g>
	<path d="M58.161,26.148c0,0.415-0.336,0.75-0.75,0.75s-0.75-0.335-0.75-0.75s0.336-0.75,0.75-0.75S58.161,25.733,58.161,26.148z"/>
	<path d="M57.973,29.064c0.222-0.417,0.4-0.941,0.4-1.231c0-0.532-0.431-0.593-0.962-0.593c-0.532,0-0.963,0.061-0.963,0.593
		c0,0.29,0.18,0.814,0.4,1.231c-1.167,0.445-2.041,2.246-2.041,4.401h5.205C60.013,31.311,59.14,29.51,57.973,29.064z"/>
	<circle cx="61.156" cy="25.63" r="0.823"/>
	<path d="M62.449,26.832h-0.662l-0.63,1.353l-0.631-1.353h-0.66c-0.153,0-0.277,0.107-0.277,0.238c0,0.012,0,0.022,0.002,0.035
		l0.012,0.057l0.655,3.093v3.211h1.798v-3.21l0.662-3.121l0.006-0.029c0.001-0.013,0.002-0.023,0.002-0.035
		C62.726,26.939,62.601,26.832,62.449,26.832z"/>
	<path d="M69.335,46.121v-0.222c0-1.601-1.319-2.894-2.925-2.872l0.002-7.39c0.001-0.025,0.002-0.052,0.002-0.076
		c0-0.026-0.001-0.051-0.004-0.066V33.76c0-0.549-0.446-0.996-0.996-0.996H52.108c-0.55,0-0.998,0.447-0.998,0.996l-0.004,1.802
		c0,0.024,0.003,0.051,0.004,0.072v7.394c-1.6-0.02-2.896,1.245-2.922,2.825V48h21.159v-1.879H69.335L69.335,46.121z M52.606,34.259
		h12.311v1.338c-0.021,0.629-0.534,1.134-1.166,1.134c-0.636,0-1.148-0.5-1.165-1.137c-0.009-0.271-0.229-0.484-0.499-0.484
		c-0.269,0-0.489,0.214-0.498,0.484c-0.018,0.637-0.53,1.137-1.164,1.137c-0.636,0-1.147-0.5-1.165-1.137
		c-0.009-0.271-0.23-0.485-0.5-0.485s-0.489,0.215-0.497,0.485c-0.019,0.637-0.529,1.137-1.165,1.137s-1.146-0.5-1.165-1.137
		c-0.008-0.27-0.229-0.483-0.499-0.483c-0.269,0-0.489,0.214-0.497,0.483c-0.019,0.637-0.531,1.137-1.165,1.137
		c-0.633,0-1.146-0.505-1.165-1.134V34.259L52.606,34.259z M52.606,37.384c0.336,0.216,0.736,0.343,1.165,0.343
		c0.671,0,1.268-0.3,1.663-0.775c0.396,0.476,0.992,0.775,1.663,0.775s1.268-0.3,1.664-0.775c0.396,0.476,0.991,0.775,1.663,0.775
		c0.67,0,1.267-0.3,1.662-0.775c0.396,0.476,0.992,0.775,1.664,0.775c0.43,0,0.828-0.127,1.166-0.343v3.061
		c-0.006,0-0.009,0-0.011,0c-1.07,0-2.102-0.317-2.982-0.921c-0.168-0.115-0.392-0.115-0.562,0c-0.88,0.604-1.911,0.921-2.98,0.921
		c-1.071,0-2.102-0.317-2.98-0.921c-0.171-0.115-0.394-0.115-0.563,0c-0.67,0.458-1.434,0.752-2.231,0.867V37.384L52.606,37.384z
		 M52.606,41.396c0.889-0.106,1.746-0.402,2.512-0.868c0.982,0.599,2.104,0.914,3.263,0.914s2.28-0.315,3.262-0.914
		c0.982,0.599,2.104,0.914,3.264,0.914c0.002,0,0.005-0.002,0.011-0.002v2.648c-0.425-0.36-0.968-0.564-1.536-0.564
		c-0.569,0-1.114,0.206-1.539,0.569c-0.426-0.363-0.971-0.569-1.54-0.569c-0.57,0-1.115,0.206-1.541,0.569
		c-0.426-0.363-0.97-0.569-1.54-0.569c-0.569,0-1.115,0.206-1.54,0.569c-0.426-0.363-0.971-0.569-1.541-0.569
		c-0.566,0-1.109,0.204-1.533,0.564V41.396z M49.681,46.621v-0.722c0-0.759,0.618-1.379,1.379-1.379
		c0.449,0,0.873,0.223,1.132,0.594c0.185,0.268,0.632,0.268,0.817,0c0.259-0.371,0.681-0.594,1.132-0.594
		c0.45,0,0.872,0.223,1.132,0.594c0.187,0.268,0.631,0.268,0.816,0c0.259-0.371,0.682-0.594,1.132-0.594
		c0.451,0,0.875,0.223,1.132,0.594c0.186,0.268,0.632,0.268,0.818,0c0.258-0.371,0.681-0.594,1.131-0.594s0.872,0.223,1.132,0.594
		c0.187,0.268,0.631,0.268,0.818,0c0.258-0.371,0.681-0.594,1.129-0.594c0.451,0,0.875,0.223,1.133,0.594
		c0.187,0.268,0.632,0.268,0.818,0c0.258-0.371,0.68-0.594,1.131-0.594c0.761,0,1.379,0.62,1.379,1.379v0.722H49.681z"/>
</g>
<g>
	<path d="M81.072,27.936c0,1.136-0.92,2.056-2.057,2.056c-1.135,0-2.057-0.92-2.057-2.056c0-1.137,0.922-2.058,2.057-2.058
		C80.151,25.878,81.072,26.799,81.072,27.936z"/>
	<path d="M90.699,27.936c0,1.136-0.921,2.056-2.059,2.056c-1.134,0-2.055-0.92-2.055-2.056c0-1.137,0.921-2.058,2.055-2.058
		C89.778,25.878,90.699,26.799,90.699,27.936z"/>
	<path d="M83.051,37.821c-0.743-0.886-1.584-1.542-2.494-1.889c0.608-1.146,1.099-2.585,1.099-3.379c0-1.458-1.182-1.625-2.64-1.625
		c-1.459,0-2.64,0.167-2.64,1.625c0,0.794,0.492,2.233,1.098,3.379c-3.2,1.22-5.594,6.159-5.594,12.067h8.386
		C80.266,43.979,81.322,40.327,83.051,37.821z"/>
	<path d="M90.183,35.933c0.608-1.146,1.1-2.585,1.1-3.379c0-1.458-1.182-1.625-2.642-1.625c-1.457,0-2.638,0.167-2.638,1.625
		c0,0.794,0.49,2.233,1.098,3.379c-3.2,1.22-5.594,6.159-5.594,12.067h14.271C95.777,42.092,93.384,37.152,90.183,35.933z"/>
</g>
<g>
	<path d="M108.013,27.05c0,1.216-0.984,2.201-2.201,2.201c-1.215,0-2.201-0.986-2.201-2.201c0-1.217,0.986-2.202,2.201-2.202
		C107.028,24.848,108.013,25.833,108.013,27.05z"/>
	<polygon points="106.705,29.616 105.812,30.056 104.916,29.616 104.916,30.912 105.812,30.474 106.705,30.912 	"/>
	<path d="M108.775,30.265h-1.278l-1.686,3.613l-1.687-3.613h-1.279c-0.352,0-0.637,0.285-0.637,0.637
		c0,0.031,0.001,0.062,0.005,0.091l0.026,0.155l1.167,7.231V48h2.077v-7.173c0-0.184,0.146-0.327,0.327-0.327
		c0.18,0,0.325,0.144,0.325,0.327V48h2.077v-9.621l1.179-7.308l0.013-0.079c0.006-0.029,0.008-0.06,0.008-0.091
		C109.413,30.55,109.127,30.265,108.775,30.265z"/>
	<path d="M116.111,27.05c0,1.216-0.985,2.201-2.2,2.201c-1.217,0-2.202-0.986-2.202-2.201c0-1.217,0.985-2.202,2.202-2.202
		C115.126,24.848,116.111,25.833,116.111,27.05z"/>
	<polygon points="114.803,29.616 113.909,30.056 113.015,29.616 113.015,30.912 113.909,30.474 114.803,30.912 	"/>
	<path d="M116.873,30.265h-1.278l-1.686,3.613l-1.685-3.613h-1.281c-0.352,0-0.637,0.285-0.637,0.637
		c0,0.031,0.001,0.062,0.006,0.091l0.026,0.155l1.163,7.231V48h2.082v-7.173c0-0.184,0.146-0.327,0.324-0.327
		c0.182,0,0.327,0.144,0.327,0.327V48h2.076v-9.621l1.179-7.308l0.014-0.079c0.005-0.029,0.006-0.06,0.006-0.091
		C117.511,30.55,117.225,30.265,116.873,30.265z"/>
</g>
<g>
	<g>
		<g>
			<path d="M15.314,32.667"/>
		</g>
	</g>
	<path d="M20.453,27.758c0,1.175-0.951,2.126-2.125,2.126c-1.175,0-2.129-0.951-2.129-2.126s0.954-2.127,2.129-2.127
		C19.502,25.631,20.453,26.584,20.453,27.758z"/>
	<polygon points="19.19,30.238 18.325,30.662 17.462,30.238 17.462,31.489 18.325,31.066 19.19,31.489 	"/>
	<path d="M21.19,30.863h-1.236l-1.629,3.493l-1.627-3.493h-1.237c-0.339,0-0.615,0.276-0.615,0.615c0,0.03,0.002,0.061,0.007,0.089
		l0.023,0.149l1.126,6.988V48h2.008v-6.932c0-0.174,0.141-0.316,0.314-0.316s0.316,0.143,0.316,0.316V48h2.007v-9.295l1.139-7.062
		l0.013-0.076c0.004-0.028,0.007-0.059,0.007-0.089C21.807,31.14,21.531,30.863,21.19,30.863z"/>
	<path d="M13.093,39.174c0.255-0.159,0.509-0.33,0.755-0.51c2.075-1.508,0.219-4.205-1.746-7.062
		c-0.596-0.866-1.27-1.846-1.846-2.815c-0.289-0.983-1.195-1.666-2.223-1.666c-1.028,0-1.935,0.683-2.223,1.666
		c-0.575,0.97-1.25,1.949-1.846,2.815C2,34.459,0.145,37.156,2.22,38.664c0.247,0.18,0.5,0.351,0.755,0.511
		c-1.24,2.135-1.919,4.952-1.919,7.983c0,0.438,0.357,0.797,0.797,0.797h12.362c0.44,0,0.797-0.358,0.797-0.797
		C15.011,44.127,14.333,41.31,13.093,39.174z M6.167,30.022c0.248,0.795,0.99,1.372,1.868,1.372s1.619-0.577,1.867-1.372
		c0.457,0.718,0.942,1.425,1.419,2.117c1.769,2.572,3.296,4.792,1.97,5.757c-0.339,0.245-0.682,0.47-1.021,0.668
		c-0.664-0.926-1.445-1.64-2.309-2.073c0.413-0.876,0.794-1.984,0.794-2.715c0-1.842-1.771-1.842-2.721-1.842
		c-0.951,0-2.722,0-2.722,1.842c0,0.73,0.381,1.839,0.794,2.715c-0.864,0.434-1.645,1.147-2.309,2.073
		c-0.339-0.198-0.682-0.423-1.02-0.668c-1.327-0.965,0.201-3.185,1.97-5.756C5.223,31.447,5.709,30.74,6.167,30.022z M6.853,37.11
		c0.117-0.045,0.208-0.137,0.252-0.254c0.044-0.116,0.035-0.247-0.023-0.356c-0.465-0.879-0.826-1.922-0.89-2.545
		c0.503,0.069,0.941,0.27,1.278,0.592c0.141,0.136,0.264,0.302,0.379,0.509c0.051,0.093,0.148,0.149,0.253,0.149l0,0
		c0.105,0,0.203-0.058,0.253-0.149c0.115-0.206,0.238-0.373,0.379-0.509c0.305-0.292,0.693-0.485,1.138-0.57
		c-0.069,0.625-0.427,1.655-0.888,2.523c-0.058,0.109-0.066,0.24-0.022,0.356c0.043,0.117,0.135,0.209,0.252,0.254
		c1.794,0.683,3.253,2.847,4.008,5.668c-0.778,0.181-1.703,0.012-2.588-0.482c-0.134-0.074-0.302-0.031-0.385,0.098
		c-0.488,0.759-1.317,1.211-2.216,1.211c-0.9,0-1.729-0.453-2.216-1.211c-0.083-0.129-0.251-0.171-0.385-0.098
		c-0.883,0.493-1.813,0.66-2.586,0.482C3.601,39.957,5.06,37.795,6.853,37.11z M6.236,33.377c0.136-0.392,0.573-0.573,1.798-0.573
		c1.245,0,1.675,0.188,1.803,0.593c-0.584,0.098-1.099,0.345-1.503,0.733c-0.082,0.077-0.159,0.164-0.23,0.257
		c-0.073-0.093-0.15-0.18-0.232-0.257C7.436,33.712,6.875,33.457,6.236,33.377z M2.707,43.34c0.847,0.196,1.833,0.054,2.776-0.414
		c0.607,0.793,1.542,1.259,2.551,1.259c1.008,0,1.943-0.466,2.55-1.259c0.945,0.468,1.927,0.614,2.777,0.417
		c0.241,1.059,0.386,2.199,0.414,3.381H2.292C2.32,45.54,2.465,44.4,2.707,43.34z"/>
</g>
<g>
	<path d="M35.544,33.552c-2.812,0-5.1,2.289-5.1,5.1c0,2.812,2.288,5.1,5.1,5.1c2.812,0,5.1-2.287,5.1-5.1
		C40.645,35.841,38.357,33.552,35.544,33.552z M35.544,43.065c-2.434,0-4.414-1.98-4.414-4.414c0-2.432,1.98-4.412,4.414-4.412
		c2.434,0,4.415,1.979,4.415,4.412S37.979,43.065,35.544,43.065z"/>
	<path d="M37.542,31.685l-0.546,0.572c2.923,0.662,5.114,3.273,5.114,6.395c0,3.621-2.944,6.564-6.564,6.564
		c-3.62,0-6.564-2.943-6.564-6.564c0-3.119,2.191-5.732,5.114-6.395l-0.546-0.572c-3.03,0.869-5.254,3.662-5.254,6.967
		c0,4,3.252,7.252,7.25,7.252c3.999,0,7.251-3.252,7.251-7.252C42.795,35.347,40.571,32.554,37.542,31.685z"/>
	<polygon points="36.657,29.587 34.68,29.587 35.561,32.524 	"/>
	<path d="M38.862,29.282l-0.773-1.332c-0.004,0.011-0.007,0.021-0.015,0.031l-0.954,1.301H38.862z"/>
	<polygon points="34.14,29.282 32.989,27.971 32.228,29.282 	"/>
	<polygon points="36.513,29.282 35.611,28.096 34.77,29.282 	"/>
	<polygon points="36.982,29.587 35.812,32.724 38.805,29.587 	"/>
	<polygon points="34.362,29.587 32.285,29.587 35.313,32.761 	"/>
	<polygon points="36.817,29.181 37.806,27.832 35.793,27.832 	"/>
	<polygon points="34.462,29.188 35.425,27.832 33.272,27.832 	"/>
</g>
<g>
	<path fill="#FFFFFF" d="M58.82,1.492c0,0.415-0.336,0.75-0.75,0.75s-0.75-0.335-0.75-0.75s0.336-0.75,0.75-0.75
		S58.82,1.077,58.82,1.492z"/>
	<path fill="#FFFFFF" d="M58.632,4.408c0.222-0.417,0.4-0.941,0.4-1.231c0-0.532-0.431-0.593-0.962-0.593
		c-0.532,0-0.963,0.061-0.963,0.593c0,0.29,0.18,0.814,0.4,1.231c-1.167,0.445-2.041,2.246-2.041,4.401h5.205
		C60.672,6.654,59.799,4.854,58.632,4.408z"/>
	<circle fill="#FFFFFF" cx="61.815" cy="0.974" r="0.823"/>
	<path fill="#FFFFFF" d="M63.108,2.176h-0.662l-0.63,1.353l-0.631-1.353h-0.66c-0.153,0-0.277,0.107-0.277,0.238
		c0,0.012,0,0.022,0.002,0.035l0.012,0.057l0.655,3.093V8.81h1.798V5.6l0.662-3.121l0.006-0.029
		c0.001-0.013,0.002-0.023,0.002-0.035C63.385,2.283,63.26,2.176,63.108,2.176z"/>
	<path fill="#FFFFFF" d="M69.994,21.465v-0.222c0-1.601-1.319-2.894-2.925-2.872l0.002-7.39c0.001-0.025,0.002-0.052,0.002-0.076
		c0-0.026-0.001-0.051-0.004-0.066V9.104c0-0.549-0.446-0.996-0.996-0.996H52.768c-0.55,0-0.998,0.447-0.998,0.996l-0.004,1.802
		c0,0.024,0.003,0.051,0.004,0.072v7.394c-1.6-0.02-2.896,1.245-2.922,2.825v2.147h21.159v-1.879H69.994L69.994,21.465z
		 M53.266,9.603h12.311v1.338c-0.021,0.629-0.534,1.134-1.166,1.134c-0.636,0-1.148-0.5-1.165-1.137
		c-0.009-0.271-0.229-0.484-0.499-0.484c-0.269,0-0.489,0.214-0.498,0.484c-0.018,0.637-0.53,1.137-1.164,1.137
		c-0.636,0-1.147-0.5-1.165-1.137c-0.009-0.271-0.23-0.485-0.5-0.485s-0.489,0.215-0.497,0.485
		c-0.019,0.637-0.529,1.137-1.165,1.137s-1.146-0.5-1.165-1.137c-0.008-0.27-0.229-0.483-0.499-0.483
		c-0.269,0-0.489,0.214-0.497,0.483c-0.019,0.637-0.531,1.137-1.165,1.137c-0.633,0-1.146-0.505-1.165-1.134V9.603L53.266,9.603z
		 M53.266,12.728c0.336,0.216,0.736,0.343,1.165,0.343c0.671,0,1.268-0.3,1.663-0.775c0.396,0.476,0.992,0.775,1.663,0.775
		s1.268-0.3,1.664-0.775c0.396,0.476,0.991,0.775,1.663,0.775c0.67,0,1.267-0.3,1.662-0.775c0.396,0.476,0.992,0.775,1.664,0.775
		c0.43,0,0.828-0.127,1.166-0.343v3.061c-0.006,0-0.009,0-0.011,0c-1.07,0-2.102-0.317-2.982-0.921
		c-0.168-0.115-0.392-0.115-0.562,0c-0.88,0.604-1.911,0.921-2.98,0.921c-1.071,0-2.102-0.317-2.98-0.921
		c-0.171-0.115-0.394-0.115-0.563,0c-0.67,0.458-1.434,0.752-2.231,0.867V12.728L53.266,12.728z M53.266,16.74
		c0.889-0.106,1.746-0.402,2.512-0.868c0.982,0.599,2.104,0.914,3.263,0.914s2.28-0.315,3.262-0.914
		c0.982,0.599,2.104,0.914,3.264,0.914c0.002,0,0.005-0.002,0.011-0.002v2.648c-0.425-0.36-0.968-0.564-1.536-0.564
		c-0.569,0-1.114,0.206-1.539,0.569c-0.426-0.363-0.971-0.569-1.54-0.569c-0.57,0-1.115,0.206-1.541,0.569
		c-0.426-0.363-0.97-0.569-1.54-0.569c-0.569,0-1.115,0.206-1.54,0.569c-0.426-0.363-0.971-0.569-1.541-0.569
		c-0.566,0-1.109,0.204-1.533,0.564V16.74z M50.34,21.965v-0.722c0-0.759,0.618-1.379,1.379-1.379c0.449,0,0.873,0.223,1.132,0.594
		c0.185,0.268,0.632,0.268,0.817,0c0.259-0.371,0.681-0.594,1.132-0.594c0.45,0,0.872,0.223,1.132,0.594
		c0.187,0.268,0.631,0.268,0.816,0c0.259-0.371,0.682-0.594,1.132-0.594c0.451,0,0.875,0.223,1.132,0.594
		c0.186,0.268,0.632,0.268,0.818,0c0.258-0.371,0.681-0.594,1.131-0.594s0.872,0.223,1.132,0.594c0.187,0.268,0.631,0.268,0.818,0
		c0.258-0.371,0.681-0.594,1.129-0.594c0.451,0,0.875,0.223,1.133,0.594c0.187,0.268,0.632,0.268,0.818,0
		c0.258-0.371,0.68-0.594,1.131-0.594c0.761,0,1.379,0.62,1.379,1.379v0.722H50.34z"/>
</g>
<g>
	<path fill="#FFFFFF" d="M80.767,1.997c0,1.103-0.892,1.994-1.995,1.994c-1.102,0-1.996-0.891-1.996-1.994S77.67,0,78.771,0
		C79.874,0,80.767,0.894,80.767,1.997z"/>
	<path fill="#FFFFFF" d="M90.108,1.997c0,1.103-0.894,1.994-1.997,1.994c-1.102,0-1.994-0.891-1.994-1.994S87.01,0,88.111,0
		C89.215,0,90.108,0.894,90.108,1.997z"/>
	<path fill="#FFFFFF" d="M82.687,11.589c-0.721-0.859-1.537-1.496-2.42-1.833c0.59-1.111,1.066-2.508,1.066-3.279
		c0-1.415-1.147-1.576-2.562-1.576c-1.416,0-2.562,0.162-2.562,1.576c0,0.771,0.478,2.168,1.064,3.279
		c-3.105,1.184-5.428,5.978-5.428,11.711h8.137C79.983,17.565,81.01,14.021,82.687,11.589z"/>
	<path fill="#FFFFFF" d="M89.607,9.756c0.59-1.111,1.066-2.508,1.066-3.279c0-1.415-1.146-1.576-2.562-1.576
		c-1.414,0-2.561,0.162-2.561,1.576c0,0.771,0.477,2.168,1.065,3.279c-3.104,1.184-5.428,5.978-5.428,11.711h13.849
		C95.036,15.734,92.714,10.94,89.607,9.756z"/>
</g>
<g>
	<path fill="#FFFFFF" d="M108.672,2.394c0,1.216-0.984,2.201-2.201,2.201c-1.215,0-2.201-0.986-2.201-2.201
		c0-1.217,0.986-2.202,2.201-2.202C107.688,0.191,108.672,1.177,108.672,2.394z"/>
	<polygon fill="#FFFFFF" points="107.364,4.96 106.471,5.399 105.575,4.96 105.575,6.256 106.471,5.817 107.364,6.256 	"/>
	<path fill="#FFFFFF" d="M109.435,5.608h-1.278l-1.686,3.613l-1.687-3.613h-1.279c-0.352,0-0.637,0.285-0.637,0.637
		c0,0.031,0.001,0.062,0.005,0.091l0.026,0.155l1.167,7.231v9.621h2.077v-7.173c0-0.184,0.146-0.327,0.327-0.327
		c0.18,0,0.325,0.144,0.325,0.327v7.173h2.077v-9.621l1.179-7.308l0.013-0.079c0.006-0.029,0.008-0.06,0.008-0.091
		C110.072,5.894,109.786,5.608,109.435,5.608z"/>
	<path fill="#FFFFFF" d="M116.771,2.394c0,1.216-0.985,2.201-2.2,2.201c-1.217,0-2.202-0.986-2.202-2.201
		c0-1.217,0.985-2.202,2.202-2.202C115.785,0.191,116.771,1.177,116.771,2.394z"/>
	<polygon fill="#FFFFFF" points="115.462,4.96 114.568,5.399 113.674,4.96 113.674,6.256 114.568,5.817 115.462,6.256 	"/>
	<path fill="#FFFFFF" d="M117.532,5.608h-1.278l-1.686,3.613l-1.685-3.613h-1.281c-0.352,0-0.637,0.285-0.637,0.637
		c0,0.031,0.001,0.062,0.006,0.091l0.026,0.155l1.163,7.231v9.621h2.082v-7.173c0-0.184,0.146-0.327,0.324-0.327
		c0.182,0,0.327,0.144,0.327,0.327v7.173h2.076v-9.621l1.179-7.308l0.014-0.079c0.005-0.029,0.006-0.06,0.006-0.091
		C118.17,5.894,117.884,5.608,117.532,5.608z"/>
</g>
<g>
	<g>
		<g>
			<path fill="#FFFFFF" d="M16.974,8.011"/>
		</g>
	</g>
	<path fill="#FFFFFF" d="M22.113,3.102c0,1.175-0.951,2.126-2.125,2.126c-1.175,0-2.129-0.951-2.129-2.126s0.954-2.127,2.129-2.127
		C21.162,0.975,22.113,1.928,22.113,3.102z"/>
	<polygon fill="#FFFFFF" points="20.85,5.582 19.985,6.006 19.122,5.582 19.122,6.833 19.985,6.41 20.85,6.833 	"/>
	<path fill="#FFFFFF" d="M22.851,6.207h-1.236L19.985,9.7l-1.627-3.493h-1.237c-0.339,0-0.615,0.276-0.615,0.615
		c0,0.03,0.002,0.061,0.007,0.089l0.023,0.149l1.126,6.988v9.295h2.008v-6.932c0-0.174,0.141-0.316,0.314-0.316
		s0.316,0.143,0.316,0.316v6.932h2.007v-9.295l1.139-7.062l0.013-0.076c0.004-0.028,0.007-0.059,0.007-0.089
		C23.467,6.483,23.191,6.207,22.851,6.207z"/>
	<path fill="#FFFFFF" d="M14.753,14.518c0.255-0.159,0.509-0.33,0.755-0.51c2.075-1.508,0.219-4.205-1.746-7.062
		c-0.596-0.866-1.27-1.846-1.846-2.815c-0.289-0.983-1.195-1.666-2.223-1.666c-1.028,0-1.935,0.683-2.223,1.666
		c-0.575,0.97-1.25,1.949-1.846,2.815C3.661,9.803,1.805,12.5,3.88,14.008c0.247,0.18,0.5,0.351,0.755,0.511
		c-1.24,2.135-1.919,4.952-1.919,7.983c0,0.438,0.357,0.797,0.797,0.797h12.362c0.44,0,0.797-0.358,0.797-0.797
		C16.671,19.471,15.993,16.653,14.753,14.518z M7.827,5.366c0.248,0.795,0.99,1.372,1.868,1.372s1.619-0.577,1.867-1.372
		c0.457,0.718,0.942,1.425,1.419,2.117c1.769,2.572,3.296,4.792,1.97,5.757c-0.339,0.245-0.682,0.47-1.021,0.668
		c-0.664-0.926-1.445-1.64-2.309-2.073c0.413-0.876,0.794-1.984,0.794-2.715c0-1.842-1.771-1.842-2.721-1.842
		c-0.951,0-2.722,0-2.722,1.842c0,0.73,0.381,1.839,0.794,2.715c-0.864,0.434-1.645,1.147-2.309,2.073
		c-0.339-0.198-0.682-0.423-1.02-0.668c-1.327-0.965,0.201-3.185,1.97-5.756C6.883,6.791,7.37,6.084,7.827,5.366z M8.513,12.454
		c0.117-0.045,0.208-0.137,0.252-0.254c0.044-0.116,0.035-0.247-0.023-0.356c-0.465-0.879-0.826-1.922-0.89-2.545
		c0.503,0.069,0.941,0.27,1.278,0.592c0.141,0.136,0.264,0.302,0.379,0.509c0.051,0.093,0.148,0.149,0.253,0.149l0,0
		c0.105,0,0.203-0.058,0.253-0.149c0.115-0.206,0.238-0.373,0.379-0.509c0.305-0.292,0.693-0.485,1.138-0.57
		c-0.069,0.625-0.427,1.655-0.888,2.523c-0.058,0.109-0.066,0.24-0.022,0.356c0.043,0.117,0.135,0.209,0.252,0.254
		c1.794,0.683,3.253,2.847,4.008,5.668c-0.778,0.181-1.703,0.012-2.588-0.482c-0.134-0.074-0.302-0.031-0.385,0.098
		c-0.488,0.759-1.317,1.211-2.216,1.211c-0.9,0-1.729-0.453-2.216-1.211c-0.083-0.129-0.251-0.171-0.385-0.098
		c-0.883,0.493-1.813,0.66-2.586,0.482C5.261,15.301,6.72,13.139,8.513,12.454z M7.896,8.721c0.136-0.392,0.573-0.573,1.798-0.573
		c1.245,0,1.675,0.188,1.803,0.593c-0.584,0.098-1.099,0.345-1.503,0.733C9.912,9.551,9.835,9.638,9.763,9.73
		c-0.073-0.093-0.15-0.18-0.232-0.257C9.096,9.056,8.536,8.801,7.896,8.721z M4.367,18.684C5.214,18.88,6.2,18.737,7.143,18.27
		c0.607,0.793,1.542,1.259,2.551,1.259c1.008,0,1.943-0.466,2.55-1.259c0.945,0.468,1.927,0.614,2.777,0.417
		c0.241,1.059,0.386,2.199,0.414,3.381H3.953C3.98,20.884,4.125,19.744,4.367,18.684z"/>
</g>
<g>
	<path fill="#FFFFFF" d="M37.205,8.896c-2.812,0-5.1,2.289-5.1,5.1c0,2.812,2.288,5.1,5.1,5.1c2.812,0,5.1-2.287,5.1-5.1
		C42.305,11.185,40.017,8.896,37.205,8.896z M37.205,18.409c-2.434,0-4.414-1.98-4.414-4.414c0-2.432,1.98-4.412,4.414-4.412
		c2.434,0,4.415,1.979,4.415,4.412S39.639,18.409,37.205,18.409z"/>
	<path fill="#FFFFFF" d="M39.202,7.028l-0.546,0.572c2.923,0.662,5.114,3.273,5.114,6.395c0,3.621-2.944,6.564-6.564,6.564
		c-3.62,0-6.564-2.943-6.564-6.564c0-3.119,2.191-5.732,5.114-6.395l-0.546-0.572c-3.03,0.869-5.254,3.662-5.254,6.967
		c0,4,3.252,7.252,7.25,7.252c3.999,0,7.251-3.252,7.251-7.252C44.456,10.69,42.231,7.897,39.202,7.028z"/>
	<polygon fill="#FFFFFF" points="38.317,4.931 36.34,4.931 37.221,7.868 	"/>
	<path fill="#FFFFFF" d="M40.522,4.626l-0.773-1.332c-0.004,0.011-0.007,0.021-0.015,0.031L38.78,4.626H40.522z"/>
	<polygon fill="#FFFFFF" points="35.8,4.626 34.649,3.314 33.888,4.626 	"/>
	<polygon fill="#FFFFFF" points="38.173,4.626 37.271,3.439 36.43,4.626 	"/>
	<polygon fill="#FFFFFF" points="38.642,4.931 37.472,8.067 40.465,4.931 	"/>
	<polygon fill="#FFFFFF" points="36.022,4.931 33.945,4.931 36.973,8.104 	"/>
	<polygon fill="#FFFFFF" points="38.478,4.524 39.466,3.176 37.454,3.176 	"/>
	<polygon fill="#FFFFFF" points="36.123,4.532 37.085,3.176 34.932,3.176 	"/>
</g>
</svg>
