<?xml version="1.0" encoding="utf-8"?>
<!-- Generator: Adobe Illustrator 16.0.0, SVG Export Plug-In . SVG Version: 6.00 Build 0)  -->
<!DOCTYPE svg PUBLIC "-//W3C//DTD SVG 1.1//EN" "http://www.w3.org/Graphics/SVG/1.1/DTD/svg11.dtd">
<svg version="1.1" id="Layer_1" xmlns="http://www.w3.org/2000/svg" xmlns:xlink="http://www.w3.org/1999/xlink" x="0px" y="0px"
	 width="74.686px" height="113.018px" viewBox="10.499 -34.326 74.686 113.018"
	 enable-background="new 10.499 -34.326 74.686 113.018" xml:space="preserve">
<g>
	<g>
		<g>
			<g>
				<path d="M41.503,35.467h-2.047h-2.282H19.387h-2.283h-2.051V10c0-7.292,5.936-13.228,13.227-13.228
					C35.572-3.227,41.5,2.708,41.5,10v25.467H41.503z M28.283-7.784c-9.809,0-17.784,7.979-17.784,17.784v25.467h4.548v43.225
					h11.802V44.734h2.866l-0.003,33.957h11.812V35.467h4.544V10C46.067,0.194,38.089-7.784,28.283-7.784"/>
			</g>
			<g>
				<path d="M18.301-4.183v19.217c0,5.503,4.478,9.981,9.979,9.981c5.504,0,9.979-4.479,9.979-9.981V-4.183h-1.544h-1.155v4.959
					v7.979v6.03c0,4.01-3.267,7.277-7.275,7.277c-4.014,0-7.274-3.269-7.274-7.277v-6.03V0.776v-4.959H19.85H18.301z"/>
			</g>
		</g>
		<g>
			<polygon points="33.474,-0.064 28.279,2.933 23.09,-0.064 23.09,7.044 28.279,4.048 33.474,7.044 			"/>
		</g>
		<g>
			<path d="M22.494,8.078v-9.173l5.785,3.34l5.789-3.34v9.173l-5.789-3.341L22.494,8.078z M28.508,3.49l4.371,2.522V0.97
				L28.508,3.49z M23.686,0.974v5.04l4.367-2.52L23.686,0.974z"/>
		</g>
		<g>
			<g>
				<path d="M28.279,12.309c0.936,0,1.694-0.758,1.694-1.692c0-0.936-0.76-1.69-1.694-1.69c-0.932,0-1.689,0.755-1.689,1.69
					C26.59,11.551,27.348,12.309,28.279,12.309"/>
			</g>
			<g>
				<path d="M28.279,17.465c0.936,0,1.694-0.758,1.694-1.69c0-0.935-0.76-1.692-1.694-1.692c-0.932,0-1.689,0.759-1.689,1.692
					C26.59,16.71,27.348,17.465,28.279,17.465"/>
			</g>
			<g>
				<path d="M28.279-4.383c-7.805,0-14.151-6.351-14.151-14.156c0-7.805,6.352-14.155,14.151-14.155
					c7.807,0,14.156,6.351,14.156,14.155C42.436-10.732,36.086-4.383,28.279-4.383z M28.279-29.116
					c-5.828,0-10.573,4.745-10.573,10.577c0,5.83,4.745,10.574,10.573,10.574c5.834,0,10.578-4.744,10.578-10.574
					C38.857-24.371,34.113-29.116,28.279-29.116z"/>
			</g>
			<g>
				<path d="M28.279-12.784c-1.189,0-2.38-0.456-3.288-1.363c-0.466-0.466-0.466-1.221,0-1.687s1.221-0.466,1.688,0
					c0.885,0.884,2.322,0.884,3.206,0c0.468-0.466,1.223-0.466,1.688,0c0.463,0.466,0.463,1.224,0,1.687
					C30.664-13.24,29.471-12.784,28.279-12.784z"/>
			</g>
			<g>
				<path d="M23.41-18.103c-0.49,0-0.885-0.397-0.885-0.884c0-0.49,0.395-0.888,0.885-0.888c0.489,0,0.887,0.397,0.887,0.888
					C24.297-18.501,23.899-18.103,23.41-18.103"/>
			</g>
			<g>
				<path d="M33.15-18.103c-0.49,0-0.885-0.397-0.885-0.884c0-0.49,0.397-0.888,0.885-0.888c0.49,0,0.885,0.397,0.885,0.888
					C34.038-18.501,33.641-18.103,33.15-18.103"/>
			</g>
			<g>
				<path d="M22.335-31.007c-0.163-0.596-0.078-1.222,0.229-1.756c0.31-0.533,0.81-0.918,1.403-1.077
					c0.597-0.16,1.22-0.078,1.757,0.23c0.532,0.311,0.918,0.81,1.077,1.404l-1.73,0.463c-0.034-0.133-0.122-0.245-0.241-0.316
					c-0.123-0.07-0.262-0.088-0.397-0.051c-0.134,0.034-0.244,0.123-0.316,0.242c-0.07,0.123-0.088,0.262-0.055,0.398L22.335-31.007
					z"/>
			</g>
			<g>
				<path d="M19.309-28.646c-0.732-1.044-0.478-2.488,0.566-3.221c0.507-0.354,1.119-0.49,1.729-0.381
					c0.608,0.104,1.137,0.445,1.493,0.949l-1.471,1.026c-0.078-0.111-0.2-0.19-0.336-0.214c-0.137-0.023-0.274,0.007-0.391,0.085
					c-0.235,0.167-0.293,0.493-0.127,0.729L19.309-28.646z"/>
			</g>
			<g>
				<path d="M16.88-25.637c-0.474-0.396-0.763-0.955-0.815-1.57c-0.052-0.612,0.136-1.214,0.534-1.688
					c0.396-0.473,0.955-0.762,1.566-0.815c0.616-0.056,1.214,0.133,1.688,0.529l-1.148,1.371c-0.104-0.089-0.242-0.129-0.381-0.119
					c-0.141,0.011-0.266,0.078-0.354,0.185c-0.088,0.105-0.132,0.241-0.117,0.381c0.01,0.14,0.078,0.265,0.184,0.354L16.88-25.637z"
					/>
			</g>
			<g>
				<path d="M30.593-32.014h-1.788c0-0.288-0.234-0.52-0.524-0.52c-0.285,0-0.521,0.234-0.521,0.52h-1.788
					c0-1.274,1.036-2.312,2.312-2.312S30.593-33.289,30.593-32.014z"/>
			</g>
			<g>
				<path d="M34.259-31.007l-1.728-0.462c0.034-0.137,0.018-0.275-0.055-0.398c-0.068-0.119-0.181-0.208-0.316-0.242
					c-0.133-0.037-0.275-0.017-0.395,0.051c-0.122,0.071-0.207,0.185-0.244,0.319l-1.729-0.466c0.33-1.231,1.601-1.962,2.83-1.632
					c0.6,0.16,1.096,0.541,1.404,1.074C34.338-32.228,34.419-31.602,34.259-31.007z"/>
			</g>
			<g>
				<path d="M37.286-28.646l-1.466-1.026c0.078-0.112,0.108-0.251,0.085-0.389c-0.024-0.136-0.104-0.258-0.214-0.336
					c-0.113-0.082-0.252-0.111-0.393-0.088c-0.136,0.023-0.255,0.103-0.337,0.214l-1.466-1.026c0.354-0.508,0.884-0.844,1.493-0.949
					c0.609-0.109,1.221,0.027,1.728,0.381c0.508,0.354,0.845,0.884,0.949,1.493C37.775-29.766,37.64-29.15,37.286-28.646z"/>
			</g>
			<g>
				<path d="M39.711-25.637l-1.148-1.373c0.107-0.089,0.173-0.215,0.187-0.354c0.011-0.136-0.03-0.272-0.119-0.377
					c-0.092-0.109-0.217-0.173-0.355-0.188c-0.14-0.014-0.274,0.031-0.382,0.119l-1.149-1.371c0.473-0.395,1.07-0.585,1.688-0.529
					c0.615,0.054,1.173,0.344,1.57,0.815c0.398,0.473,0.585,1.071,0.53,1.688C40.477-26.589,40.184-26.031,39.711-25.637z"/>
			</g>
		</g>
	</g>
	<g>
		<g>
			<g>
				<path d="M77.857,11.074v2.104v0.748c0,5.973-5.204,10.836-11.591,10.836c-6.396,0-11.592-4.863-11.592-10.836V13.18v-2.104
					V10.33c0-5.978,5.196-10.836,11.592-10.836c6.387,0,11.591,4.858,11.591,10.836V11.074z M81.85,13.928V13.18v-2.104V10.33
					c0.007-8.037-6.985-14.574-15.583-14.574c-8.599,0-15.592,6.537-15.592,14.574v0.744v2.104v0.748
					c0,8.033,6.993,14.57,15.592,14.57C74.865,28.497,81.856,21.961,81.85,13.928"/>
			</g>
			<g>
				<path d="M85.184,78.222V43.775c0-9.95-8.959-18.056-18.917-18.056s-18.925,8.104-18.925,18.056v34.446h4.626h0.015V43.775
					c0-7.396,6.883-13.424,14.284-13.424c7.399,0,14.283,6.023,14.283,13.424v34.446h0.021L85.184,78.222L85.184,78.222z"/>
			</g>
			<g>
				<path d="M81.925-2.791c-0.407,0.289-2.855,1.717-4.788-0.89c-2.137-2.855,1.237-7.538,1.904-9.125
					C81.693-11.539,86.02-5.655,81.925-2.791"/>
			</g>
			<g>
				<path d="M50.608-2.791c0.407,0.289,2.855,1.717,4.788-0.89c2.136-2.855-1.238-7.538-1.904-9.125
					C50.832-11.539,46.517-5.655,50.608-2.791"/>
			</g>
			<g>
				<path d="M75.442-16.416c0,4.976-4.115,9.022-9.176,9.022c-5.062,0-9.184-4.048-9.184-9.022c0-0.109,0.033-0.214,0.04-0.323
					c2.354-0.898,5.952-2.636,8.722-5.567c2.312,2.096,5.639,3.966,9.428,4.2C75.381-17.559,75.442-16.994,75.442-16.416
					 M80.021-17.005c0-7.462-6.163-13.533-13.754-13.533c-7.585,0-13.754,6.071-13.754,13.533c0,7.459,6.161,13.529,13.754,13.529
					C73.851-3.475,80.021-9.546,80.021-17.005"/>
			</g>
			<g>
				<path d="M66.267,27.764c-4.503,0-8.163-3.663-8.163-8.163c0-4.503,3.66-8.162,8.163-8.162s8.162,3.659,8.162,8.162
					C74.429,24.101,70.77,27.764,66.267,27.764z M66.267,15.074c-2.497,0-4.53,2.029-4.53,4.525c0,2.497,2.033,4.527,4.53,4.527
					c2.488,0,4.529-2.03,4.529-4.527C70.797,17.104,68.763,15.074,66.267,15.074z"/>
			</g>
			<g>
				<path d="M63.369,78.229h-4.844c0-1.347-1.088-2.441-2.436-2.441c-1.347,0-2.436,1.096-2.436,2.441h-4.85
					c0-4.021,3.271-7.285,7.284-7.285C60.104,70.943,63.369,74.208,63.369,78.229z"/>
			</g>
			<g>
				<path d="M73.185,78.229h-4.852c0-1.347-1.088-2.441-2.435-2.441c-1.348,0-2.437,1.096-2.437,2.441H58.62
					c0-4.021,3.265-7.285,7.278-7.285C69.919,70.943,73.185,74.208,73.185,78.229z"/>
			</g>
			<g>
				<path d="M83.061,78.229h-4.851c0-1.347-1.088-2.441-2.436-2.441c-1.347,0-2.436,1.096-2.436,2.441h-4.844
					c0-4.021,3.267-7.285,7.278-7.285C79.789,70.943,83.061,74.208,83.061,78.229z"/>
			</g>
			<g>
				<path d="M66.267-9.835c-1.267,0-2.449-0.493-3.348-1.384c-0.47-0.475-0.47-1.242,0-1.716c0.477-0.473,1.244-0.473,1.714,0
					c0.871,0.871,2.396,0.871,3.26,0c0.476-0.473,1.244-0.473,1.714,0c0.469,0.474,0.469,1.241,0,1.716
					C68.715-10.328,67.531-9.835,66.267-9.835z"/>
			</g>
			<g>
				<path d="M61.321-15.239c-0.497,0-0.897-0.401-0.897-0.898c0-0.496,0.4-0.9,0.897-0.9c0.496,0,0.896,0.405,0.896,0.9
					C62.218-15.641,61.817-15.239,61.321-15.239"/>
			</g>
			<g>
				<path d="M71.212-15.239c-0.497,0-0.897-0.401-0.897-0.898c0-0.496,0.4-0.9,0.897-0.9c0.496,0,0.897,0.405,0.897,0.9
					C72.109-15.641,71.708-15.239,71.212-15.239"/>
			</g>
		</g>
	</g>
</g>
</svg>
